<svg width="240" height="207" viewBox="0 0 240 207" fill="none" xmlns="http://www.w3.org/2000/svg">
<path d="M37.2592 106.071C39.6477 53.5494 80.7593 -2.26554 120.259 0.0709076C164.539 2.69036 189.502 55.5709 197.259 83.5709C206.747 117.817 206.259 148.7 187.759 174.071C170.522 197.71 149.516 206.691 120.259 206.571C96.1465 206.472 80.4461 200.46 62.7592 184.071C39.2525 162.289 35.8034 138.085 37.2592 106.071ZM183.759 63.5709C174.259 37.5709 147.814 4.02271 121.259 5.07091C83.2593 6.5712 50.7263 66.071 47.7592 111.071C47.5947 113.569 46.7264 143.042 55.2592 160.571C68.5341 187.842 94.2594 203.571 119.259 203.571C146.259 203.571 167.096 193.492 183.259 169.571C192.759 155.511 204.489 120.305 183.759 63.5709Z" fill="white"/>
<path d="M153.709 46.0688C148.843 41.0083 144.327 30.9999 144.327 30.9999C144.327 30.9999 141.084 40.9277 136.509 46.0688C132.537 50.5331 124 55.5861 124 55.5861C124 55.5861 131.585 59.4913 135.727 63.5171C140.362 68.0219 144.327 76.9999 144.327 76.9999C144.327 76.9999 148.646 67.9728 153.709 63.5171C158.252 59.5194 167 55.5861 167 55.5861C167 55.5861 158.207 50.7457 153.709 46.0688Z" fill="white"/>
<path d="M17.9373 97.1291V92.8566C17.9373 92.194 17.3161 91.7264 16.696 91.96C13.0202 93.3451 2.32162 98.3656 0.315539 110.452C-0.403808 114.786 -0.013087 118.025 2.74612 121.435C18.5448 140.961 50.75 145.714 59.2572 147.063C70.8023 148.893 123.06 157.436 186.863 141.571C193.656 139.882 249.77 120.825 238.512 93.9774C230.167 74.0747 210.629 72.1549 205.262 72.0103C204.576 71.9918 204.141 72.6739 204.395 73.3113L204.927 74.647C205.032 74.911 205.244 75.1178 205.508 75.2224C208.099 76.2479 221.984 82.1396 224.537 91.5367C228.183 104.961 199.551 116.411 180.786 121.435C164.987 125.666 135.031 136.153 61.6877 128.147C33.7359 125.097 11.253 120.215 8.21493 110.452C6.92352 106.302 15.5485 99.4502 17.5353 97.9393C17.79 97.7456 17.9373 97.4491 17.9373 97.1291Z" fill="white"/>
</svg>
