<svg width="240" height="207" viewBox="0 0 240 207" fill="none" xmlns="http://www.w3.org/2000/svg">
<path d="M37.2595 106.071C39.648 53.549 80.7595 -2.26602 120.26 0.0706787C164.539 2.69017 189.502 55.5707 197.26 83.5707C206.748 117.817 206.26 148.699 187.76 174.071C170.522 197.71 149.516 206.69 120.26 206.571C96.1467 206.472 80.4465 200.46 62.7595 184.071C39.2527 162.289 35.8036 138.085 37.2595 106.071ZM183.76 63.5707C174.26 37.5707 147.814 4.0225 121.26 5.07068C83.2595 6.57065 50.7266 66.0706 47.7595 111.071C47.595 113.566 46.7263 143.041 55.2595 160.571C68.5344 187.842 94.2595 203.571 119.26 203.571C146.259 203.571 167.097 193.492 183.26 169.571C192.76 155.511 204.489 120.305 183.76 63.5707Z" fill="#0D3C40"/>
<path d="M153.709 46.069C148.843 41.0085 144.327 31 144.327 31C144.327 31 141.084 40.9278 136.509 46.069C132.537 50.5332 124 55.5862 124 55.5862C124 55.5862 131.585 59.4914 135.727 63.5172C140.362 68.0221 144.327 77 144.327 77C144.327 77 148.646 67.9729 153.709 63.5172C158.252 59.5196 167 55.5862 167 55.5862C167 55.5862 158.207 50.7458 153.709 46.069Z" fill="#0D3C40"/>
<path d="M17.9373 97.1293V92.8567C17.9373 92.1941 17.3161 91.7265 16.696 91.9602C13.0202 93.3452 2.32162 98.3657 0.315539 110.452C-0.403808 114.786 -0.013087 118.025 2.74612 121.436C18.5448 140.961 50.75 145.714 59.2572 147.063C70.8023 148.894 123.06 157.436 186.863 141.571C193.656 139.882 249.77 120.825 238.512 93.9775C230.167 74.0749 210.629 72.155 205.262 72.0104C204.576 71.992 204.141 72.6741 204.395 73.3115L204.927 74.6471C205.032 74.9111 205.244 75.1179 205.508 75.2225C208.099 76.248 221.984 82.1397 224.537 91.5368C228.183 104.961 199.551 116.411 180.786 121.436C164.987 125.666 135.031 136.153 61.6877 128.148C33.7359 125.097 11.253 120.215 8.21493 110.452C6.92352 106.302 15.5485 99.4503 17.5353 97.9394C17.79 97.7457 17.9373 97.4492 17.9373 97.1293Z" fill="#0D3C40"/>
</svg>
